<svg id="visual" viewBox="0 0 960 540" width="960" height="540" xmlns="http://www.w3.org/2000/svg" xmlns:xlink="http://www.w3.org/1999/xlink" version="1.1"><rect x="0" y="0" width="960" height="540" fill="#ffffff"></rect><defs><linearGradient id="grad1_0" x1="43.8%" y1="0%" x2="100%" y2="100%"><stop offset="14.444444444444446%" stop-color="#36ff6c" stop-opacity="1"></stop><stop offset="85.55555555555554%" stop-color="#36ff6c" stop-opacity="1"></stop></linearGradient></defs><defs><linearGradient id="grad1_1" x1="43.8%" y1="0%" x2="100%" y2="100%"><stop offset="14.444444444444446%" stop-color="#36ff6c" stop-opacity="1"></stop><stop offset="85.55555555555554%" stop-color="#83ff93" stop-opacity="1"></stop></linearGradient></defs><defs><linearGradient id="grad1_2" x1="43.8%" y1="0%" x2="100%" y2="100%"><stop offset="14.444444444444446%" stop-color="#b3ffb7" stop-opacity="1"></stop><stop offset="85.55555555555554%" stop-color="#83ff93" stop-opacity="1"></stop></linearGradient></defs><defs><linearGradient id="grad1_3" x1="43.8%" y1="0%" x2="100%" y2="100%"><stop offset="14.444444444444446%" stop-color="#b3ffb7" stop-opacity="1"></stop><stop offset="85.55555555555554%" stop-color="#dbffdb" stop-opacity="1"></stop></linearGradient></defs><defs><linearGradient id="grad1_4" x1="43.8%" y1="0%" x2="100%" y2="100%"><stop offset="14.444444444444446%" stop-color="#ffffff" stop-opacity="1"></stop><stop offset="85.55555555555554%" stop-color="#dbffdb" stop-opacity="1"></stop></linearGradient></defs><defs><linearGradient id="grad2_0" x1="0%" y1="0%" x2="56.3%" y2="100%"><stop offset="14.444444444444446%" stop-color="#36ff6c" stop-opacity="1"></stop><stop offset="85.55555555555554%" stop-color="#36ff6c" stop-opacity="1"></stop></linearGradient></defs><defs><linearGradient id="grad2_1" x1="0%" y1="0%" x2="56.3%" y2="100%"><stop offset="14.444444444444446%" stop-color="#83ff93" stop-opacity="1"></stop><stop offset="85.55555555555554%" stop-color="#36ff6c" stop-opacity="1"></stop></linearGradient></defs><defs><linearGradient id="grad2_2" x1="0%" y1="0%" x2="56.3%" y2="100%"><stop offset="14.444444444444446%" stop-color="#83ff93" stop-opacity="1"></stop><stop offset="85.55555555555554%" stop-color="#b3ffb7" stop-opacity="1"></stop></linearGradient></defs><defs><linearGradient id="grad2_3" x1="0%" y1="0%" x2="56.3%" y2="100%"><stop offset="14.444444444444446%" stop-color="#dbffdb" stop-opacity="1"></stop><stop offset="85.55555555555554%" stop-color="#b3ffb7" stop-opacity="1"></stop></linearGradient></defs><defs><linearGradient id="grad2_4" x1="0%" y1="0%" x2="56.3%" y2="100%"><stop offset="14.444444444444446%" stop-color="#dbffdb" stop-opacity="1"></stop><stop offset="85.55555555555554%" stop-color="#ffffff" stop-opacity="1"></stop></linearGradient></defs><g transform="translate(960, 0)"><path d="M0 406C-54.2 407.5 -108.3 409 -163.8 395.4C-219.3 381.8 -276 353.2 -311.1 311.1C-346.2 269.1 -359.7 213.7 -385.3 159.6C-410.8 105.5 -448.4 52.7 -486 0L0 0Z" fill="#edffed"></path><path d="M0 324.8C-43.3 326 -86.7 327.2 -131 316.3C-175.4 305.5 -220.8 282.5 -248.9 248.9C-277 215.3 -287.8 170.9 -308.2 127.7C-328.6 84.4 -358.7 42.2 -388.8 0L0 0Z" fill="#c7ffc9"></path><path d="M0 243.6C-32.5 244.5 -65 245.4 -98.3 237.3C-131.6 229.1 -165.6 211.9 -186.7 186.7C-207.7 161.4 -215.8 128.2 -231.2 95.7C-246.5 63.3 -269 31.6 -291.6 0L0 0Z" fill="#9cffa5"></path><path d="M0 162.4C-21.7 163 -43.3 163.6 -65.5 158.2C-87.7 152.7 -110.4 141.3 -124.5 124.5C-138.5 107.6 -143.9 85.5 -154.1 63.8C-164.3 42.2 -179.4 21.1 -194.4 0L0 0Z" fill="#64ff80"></path><path d="M0 81.2C-10.8 81.5 -21.7 81.8 -32.8 79.1C-43.9 76.4 -55.2 70.6 -62.2 62.2C-69.2 53.8 -71.9 42.7 -77.1 31.9C-82.2 21.1 -89.7 10.5 -97.2 0L0 0Z" fill="#36ff6c"></path></g><g transform="translate(0, 540)"><path d="M0 -486C57.1 -461 114.2 -435.9 169.1 -408.4C224.1 -380.8 276.8 -350.6 306.9 -306.9C337 -263.1 344.5 -205.7 367.7 -152.3C391 -98.9 430 -49.4 469 0L0 0Z" fill="#edffed"></path><path d="M0 -388.8C45.7 -368.8 91.4 -348.7 135.3 -326.7C179.3 -304.6 221.4 -280.5 245.5 -245.5C269.6 -210.5 275.6 -164.6 294.2 -121.8C312.8 -79.1 344 -39.6 375.2 0L0 0Z" fill="#c7ffc9"></path><path d="M0 -291.6C34.3 -276.6 68.5 -261.6 101.5 -245C134.4 -228.5 166.1 -210.4 184.1 -184.1C202.2 -157.9 206.7 -123.4 220.6 -91.4C234.6 -59.3 258 -29.7 281.4 0L0 0Z" fill="#9cffa5"></path><path d="M0 -194.4C22.8 -184.4 45.7 -174.4 67.7 -163.3C89.6 -152.3 110.7 -140.3 122.8 -122.8C134.8 -105.2 137.8 -82.3 147.1 -60.9C156.4 -39.6 172 -19.8 187.6 0L0 0Z" fill="#64ff80"></path><path d="M0 -97.2C11.4 -92.2 22.8 -87.2 33.8 -81.7C44.8 -76.2 55.4 -70.1 61.4 -61.4C67.4 -52.6 68.9 -41.1 73.5 -30.5C78.2 -19.8 86 -9.9 93.8 0L0 0Z" fill="#36ff6c"></path></g></svg>