<svg id="visual" viewBox="0 0 960 540" width="960" height="540" xmlns="http://www.w3.org/2000/svg" xmlns:xlink="http://www.w3.org/1999/xlink" version="1.1"><path d="M0 210L22.8 210C45.7 210 91.3 210 137 226C182.7 242 228.3 274 274 273.2C319.7 272.3 365.3 238.7 411.2 221.8C457 205 503 205 548.8 216.8C594.7 228.7 640.3 252.3 686 251.5C731.7 250.7 777.3 225.3 823 218.2C868.7 211 914.3 222 937.2 227.5L960 233L960 0L937.2 0C914.3 0 868.7 0 823 0C777.3 0 731.7 0 686 0C640.3 0 594.7 0 548.8 0C503 0 457 0 411.2 0C365.3 0 319.7 0 274 0C228.3 0 182.7 0 137 0C91.3 0 45.7 0 22.8 0L0 0Z" fill="#8a2952"></path><path d="M0 240L22.8 241.5C45.7 243 91.3 246 137 238.2C182.7 230.3 228.3 211.7 274 196.5C319.7 181.3 365.3 169.7 411.2 177.2C457 184.7 503 211.3 548.8 223.7C594.7 236 640.3 234 686 232.5C731.7 231 777.3 230 823 222.2C868.7 214.3 914.3 199.7 937.2 192.3L960 185L960 0L937.2 0C914.3 0 868.7 0 823 0C777.3 0 731.7 0 686 0C640.3 0 594.7 0 548.8 0C503 0 457 0 411.2 0C365.3 0 319.7 0 274 0C228.3 0 182.7 0 137 0C91.3 0 45.7 0 22.8 0L0 0Z" fill="#9b305d"></path><path d="M0 167L22.8 166.3C45.7 165.7 91.3 164.3 137 155.5C182.7 146.7 228.3 130.3 274 129.8C319.7 129.3 365.3 144.7 411.2 153C457 161.3 503 162.7 548.8 156.2C594.7 149.7 640.3 135.3 686 137.7C731.7 140 777.3 159 823 169.3C868.7 179.7 914.3 181.3 937.2 182.2L960 183L960 0L937.2 0C914.3 0 868.7 0 823 0C777.3 0 731.7 0 686 0C640.3 0 594.7 0 548.8 0C503 0 457 0 411.2 0C365.3 0 319.7 0 274 0C228.3 0 182.7 0 137 0C91.3 0 45.7 0 22.8 0L0 0Z" fill="#ac3768"></path><path d="M0 128L22.8 125.7C45.7 123.3 91.3 118.7 137 120.5C182.7 122.3 228.3 130.7 274 131.2C319.7 131.7 365.3 124.3 411.2 116.5C457 108.7 503 100.3 548.8 101.2C594.7 102 640.3 112 686 119C731.7 126 777.3 130 823 129.3C868.7 128.7 914.3 123.3 937.2 120.7L960 118L960 0L937.2 0C914.3 0 868.7 0 823 0C777.3 0 731.7 0 686 0C640.3 0 594.7 0 548.8 0C503 0 457 0 411.2 0C365.3 0 319.7 0 274 0C228.3 0 182.7 0 137 0C91.3 0 45.7 0 22.8 0L0 0Z" fill="#be3e73"></path><path d="M0 45L22.8 51.3C45.7 57.7 91.3 70.3 137 78.2C182.7 86 228.3 89 274 81.7C319.7 74.3 365.3 56.7 411.2 49.2C457 41.7 503 44.3 548.8 46.2C594.7 48 640.3 49 686 47.2C731.7 45.3 777.3 40.7 823 39.5C868.7 38.3 914.3 40.7 937.2 41.8L960 43L960 0L937.2 0C914.3 0 868.7 0 823 0C777.3 0 731.7 0 686 0C640.3 0 594.7 0 548.8 0C503 0 457 0 411.2 0C365.3 0 319.7 0 274 0C228.3 0 182.7 0 137 0C91.3 0 45.7 0 22.8 0L0 0Z" fill="#d0457f"></path></svg>