<svg id="visual" viewBox="0 0 900 600" width="900" height="600" xmlns="http://www.w3.org/2000/svg" xmlns:xlink="http://www.w3.org/1999/xlink" version="1.1"><rect x="0" y="0" width="900" height="600" fill="#ffffff"></rect><path d="M0 377L129 322L257 387L386 330L514 361L643 379L771 360L900 316L900 601L771 601L643 601L514 601L386 601L257 601L129 601L0 601Z" fill="#4476e8"></path><path d="M0 451L129 454L257 445L386 427L514 454L643 392L771 441L900 375L900 601L771 601L643 601L514 601L386 601L257 601L129 601L0 601Z" fill="#0099f9"></path><path d="M0 443L129 486L257 481L386 447L514 426L643 485L771 457L900 420L900 601L771 601L643 601L514 601L386 601L257 601L129 601L0 601Z" fill="#00b9ff"></path><path d="M0 459L129 466L257 482L386 517L514 487L643 459L771 497L900 508L900 601L771 601L643 601L514 601L386 601L257 601L129 601L0 601Z" fill="#00d5ff"></path><path d="M0 560L129 563L257 558L386 546L514 523L643 553L771 537L900 564L900 601L771 601L643 601L514 601L386 601L257 601L129 601L0 601Z" fill="#0aeef5"></path></svg>