<svg id="visual" viewBox="0 0 960 540" width="960" height="540" xmlns="http://www.w3.org/2000/svg" xmlns:xlink="http://www.w3.org/1999/xlink" version="1.1"><path d="M0 337L22.8 323.8C45.7 310.7 91.3 284.3 137 275.5C182.7 266.7 228.3 275.3 274 288.5C319.7 301.7 365.3 319.3 411.2 325.7C457 332 503 327 548.8 311.8C594.7 296.7 640.3 271.3 686 270.3C731.7 269.3 777.3 292.7 823 296.5C868.7 300.3 914.3 284.7 937.2 276.8L960 269L960 541L937.2 541C914.3 541 868.7 541 823 541C777.3 541 731.7 541 686 541C640.3 541 594.7 541 548.8 541C503 541 457 541 411.2 541C365.3 541 319.7 541 274 541C228.3 541 182.7 541 137 541C91.3 541 45.7 541 22.8 541L0 541Z" fill="#8a2952"></path><path d="M0 287L22.8 302.7C45.7 318.3 91.3 349.7 137 352.8C182.7 356 228.3 331 274 325.3C319.7 319.7 365.3 333.3 411.2 331C457 328.7 503 310.3 548.8 310.2C594.7 310 640.3 328 686 337.7C731.7 347.3 777.3 348.7 823 352.8C868.7 357 914.3 364 937.2 367.5L960 371L960 541L937.2 541C914.3 541 868.7 541 823 541C777.3 541 731.7 541 686 541C640.3 541 594.7 541 548.8 541C503 541 457 541 411.2 541C365.3 541 319.7 541 274 541C228.3 541 182.7 541 137 541C91.3 541 45.7 541 22.8 541L0 541Z" fill="#9b305d"></path><path d="M0 384L22.8 379.8C45.7 375.7 91.3 367.3 137 373.5C182.7 379.7 228.3 400.3 274 407C319.7 413.7 365.3 406.3 411.2 401C457 395.7 503 392.3 548.8 396.3C594.7 400.3 640.3 411.7 686 402.8C731.7 394 777.3 365 823 351.8C868.7 338.7 914.3 341.3 937.2 342.7L960 344L960 541L937.2 541C914.3 541 868.7 541 823 541C777.3 541 731.7 541 686 541C640.3 541 594.7 541 548.8 541C503 541 457 541 411.2 541C365.3 541 319.7 541 274 541C228.3 541 182.7 541 137 541C91.3 541 45.7 541 22.8 541L0 541Z" fill="#ac3768"></path><path d="M0 429L22.8 424.7C45.7 420.3 91.3 411.7 137 417.3C182.7 423 228.3 443 274 442.3C319.7 441.7 365.3 420.3 411.2 420C457 419.7 503 440.3 548.8 446.2C594.7 452 640.3 443 686 434.8C731.7 426.7 777.3 419.3 823 418C868.7 416.7 914.3 421.3 937.2 423.7L960 426L960 541L937.2 541C914.3 541 868.7 541 823 541C777.3 541 731.7 541 686 541C640.3 541 594.7 541 548.8 541C503 541 457 541 411.2 541C365.3 541 319.7 541 274 541C228.3 541 182.7 541 137 541C91.3 541 45.7 541 22.8 541L0 541Z" fill="#be3e73"></path><path d="M0 494L22.8 489.2C45.7 484.3 91.3 474.7 137 472.8C182.7 471 228.3 477 274 476.8C319.7 476.7 365.3 470.3 411.2 466.5C457 462.7 503 461.3 548.8 467.3C594.7 473.3 640.3 486.7 686 486.5C731.7 486.3 777.3 472.7 823 472.5C868.7 472.3 914.3 485.7 937.2 492.3L960 499L960 541L937.2 541C914.3 541 868.7 541 823 541C777.3 541 731.7 541 686 541C640.3 541 594.7 541 548.8 541C503 541 457 541 411.2 541C365.3 541 319.7 541 274 541C228.3 541 182.7 541 137 541C91.3 541 45.7 541 22.8 541L0 541Z" fill="#d0457f"></path></svg>