<svg id="visual" viewBox="0 0 900 600" width="900" height="600" xmlns="http://www.w3.org/2000/svg" xmlns:xlink="http://www.w3.org/1999/xlink" version="1.1"><rect x="0" y="0" width="900" height="600" fill="#ffffff"></rect><g fill="#00aaff"><path d="M0 -51.9L11.7 -16L49.4 -16L18.9 6.1L30.5 42L0 19.8L-30.5 42L-18.9 6.1L-49.4 -16L-11.7 -16Z" transform="translate(627 42)"></path><path d="M0 -22.7L5.1 -7L21.5 -7L8.2 2.7L13.3 18.3L0 8.7L-13.3 18.3L-8.2 2.7L-21.5 -7L-5.1 -7Z" transform="translate(223 520)"></path><path d="M0 -35.9L8.1 -11.1L34.1 -11.1L13 4.2L21.1 29L0 13.7L-21.1 29L-13 4.2L-34.1 -11.1L-8.1 -11.1Z" transform="translate(883 528)"></path><path d="M0 -32.1L7.2 -9.9L30.5 -9.9L11.7 3.8L18.9 26L0 12.3L-18.9 26L-11.7 3.8L-30.5 -9.9L-7.2 -9.9Z" transform="translate(332 170)"></path><path d="M0 -21.7L4.9 -6.7L20.6 -6.7L7.9 2.6L12.8 17.6L0 8.3L-12.8 17.6L-7.9 2.6L-20.6 -6.7L-4.9 -6.7Z" transform="translate(592 295)"></path><path d="M0 -22.7L5.1 -7L21.5 -7L8.2 2.7L13.3 18.3L0 8.7L-13.3 18.3L-8.2 2.7L-21.5 -7L-5.1 -7Z" transform="translate(532 592)"></path><path d="M0 -44.4L10 -13.7L42.2 -13.7L16.1 5.2L26.1 35.9L0 16.9L-26.1 35.9L-16.1 5.2L-42.2 -13.7L-10 -13.7Z" transform="translate(208 193)"></path><path d="M0 -41.5L9.3 -12.8L39.5 -12.8L15.1 4.9L24.4 33.6L0 15.9L-24.4 33.6L-15.1 4.9L-39.5 -12.8L-9.3 -12.8Z" transform="translate(101 441)"></path><path d="M0 -30.2L6.8 -9.3L28.7 -9.3L11 3.6L17.8 24.4L0 11.5L-17.8 24.4L-11 3.6L-28.7 -9.3L-6.8 -9.3Z" transform="translate(814 172)"></path><path d="M0 -24.5L5.5 -7.6L23.3 -7.6L8.9 2.9L14.4 19.9L0 9.4L-14.4 19.9L-8.9 2.9L-23.3 -7.6L-5.5 -7.6Z" transform="translate(81 128)"></path><path d="M0 -24.5L5.5 -7.6L23.3 -7.6L8.9 2.9L14.4 19.9L0 9.4L-14.4 19.9L-8.9 2.9L-23.3 -7.6L-5.5 -7.6Z" transform="translate(774 289)"></path><path d="M0 -39.6L8.9 -12.2L37.7 -12.2L14.4 4.7L23.3 32.1L0 15.1L-23.3 32.1L-14.4 4.7L-37.7 -12.2L-8.9 -12.2Z" transform="translate(364 299)"></path><path d="M0 -22.7L5.1 -7L21.5 -7L8.2 2.7L13.3 18.3L0 8.7L-13.3 18.3L-8.2 2.7L-21.5 -7L-5.1 -7Z" transform="translate(228 310)"></path><path d="M0 -45.3L10.2 -14L43.1 -14L16.5 5.3L26.6 36.7L0 17.3L-26.6 36.7L-16.5 5.3L-43.1 -14L-10.2 -14Z" transform="translate(557 462)"></path><path d="M0 -47.2L10.6 -14.6L44.9 -14.6L17.1 5.6L27.7 38.2L0 18L-27.7 38.2L-17.1 5.6L-44.9 -14.6L-10.6 -14.6Z" transform="translate(452 97)"></path><path d="M0 -28.3L6.4 -8.7L26.9 -8.7L10.3 3.3L16.6 22.9L0 10.8L-16.6 22.9L-10.3 3.3L-26.9 -8.7L-6.4 -8.7Z" transform="translate(182 80)"></path><path d="M0 -41.5L9.3 -12.8L39.5 -12.8L15.1 4.9L24.4 33.6L0 15.9L-24.4 33.6L-15.1 4.9L-39.5 -12.8L-9.3 -12.8Z" transform="translate(346 485)"></path><path d="M0 -50L11.2 -15.5L47.6 -15.5L18.2 5.9L29.4 40.5L0 19.1L-29.4 40.5L-18.2 5.9L-47.6 -15.5L-11.2 -15.5Z" transform="translate(7 19)"></path><path d="M0 -27.4L6.1 -8.5L26 -8.5L9.9 3.2L16.1 22.1L0 10.5L-16.1 22.1L-9.9 3.2L-26 -8.5L-6.1 -8.5Z" transform="translate(504 217)"></path><path d="M0 -36.8L8.3 -11.4L35 -11.4L13.4 4.3L21.6 29.8L0 14.1L-21.6 29.8L-13.4 4.3L-35 -11.4L-8.3 -11.4Z" transform="translate(468 348)"></path><path d="M0 -21.7L4.9 -6.7L20.6 -6.7L7.9 2.6L12.8 17.6L0 8.3L-12.8 17.6L-7.9 2.6L-20.6 -6.7L-4.9 -6.7Z" transform="translate(788 56)"></path><path d="M0 -50L11.2 -15.5L47.6 -15.5L18.2 5.9L29.4 40.5L0 19.1L-29.4 40.5L-18.2 5.9L-47.6 -15.5L-11.2 -15.5Z" transform="translate(17 278)"></path><path d="M0 -38.7L8.7 -12L36.8 -12L14.1 4.6L22.7 31.3L0 14.8L-22.7 31.3L-14.1 4.6L-36.8 -12L-8.7 -12Z" transform="translate(28 572)"></path><path d="M0 -39.6L8.9 -12.2L37.7 -12.2L14.4 4.7L23.3 32.1L0 15.1L-23.3 32.1L-14.4 4.7L-37.7 -12.2L-8.9 -12.2Z" transform="translate(781 595)"></path><path d="M0 -43.4L9.7 -13.4L41.3 -13.4L15.8 5.1L25.5 35.1L0 16.6L-25.5 35.1L-15.8 5.1L-41.3 -13.4L-9.7 -13.4Z" transform="translate(676 456)"></path><path d="M0 -46.2L10.4 -14.3L44 -14.3L16.8 5.5L27.2 37.4L0 17.7L-27.2 37.4L-16.8 5.5L-44 -14.3L-10.4 -14.3Z" transform="translate(866 407)"></path><path d="M0 -42.5L9.5 -13.1L40.4 -13.1L15.4 5L25 34.4L0 16.2L-25 34.4L-15.4 5L-40.4 -13.1L-9.5 -13.1Z" transform="translate(351 54)"></path><path d="M0 -24.5L5.5 -7.6L23.3 -7.6L8.9 2.9L14.4 19.9L0 9.4L-14.4 19.9L-8.9 2.9L-23.3 -7.6L-5.5 -7.6Z" transform="translate(666 179)"></path><path d="M0 -22.7L5.1 -7L21.5 -7L8.2 2.7L13.3 18.3L0 8.7L-13.3 18.3L-8.2 2.7L-21.5 -7L-5.1 -7Z" transform="translate(881 261)"></path><path d="M0 -41.5L9.3 -12.8L39.5 -12.8L15.1 4.9L24.4 33.6L0 15.9L-24.4 33.6L-15.1 4.9L-39.5 -12.8L-9.3 -12.8Z" transform="translate(365 593)"></path><path d="M0 -30.2L6.8 -9.3L28.7 -9.3L11 3.6L17.8 24.4L0 11.5L-17.8 24.4L-11 3.6L-28.7 -9.3L-6.8 -9.3Z" transform="translate(671 592)"></path><path d="M0 -36.8L8.3 -11.4L35 -11.4L13.4 4.3L21.6 29.8L0 14.1L-21.6 29.8L-13.4 4.3L-35 -11.4L-8.3 -11.4Z" transform="translate(895 99)"></path></g></svg>