<svg id="visual" viewBox="0 0 960 540" width="960" height="540" xmlns="http://www.w3.org/2000/svg" xmlns:xlink="http://www.w3.org/1999/xlink" version="1.1"><rect x="0" y="0" width="960" height="540" fill="#ffffff"></rect><defs><linearGradient id="grad1_0" x1="43.8%" y1="0%" x2="100%" y2="100%"><stop offset="14.444444444444446%" stop-color="#6635ff" stop-opacity="1"></stop><stop offset="85.55555555555554%" stop-color="#6635ff" stop-opacity="1"></stop></linearGradient></defs><defs><linearGradient id="grad1_1" x1="43.8%" y1="0%" x2="100%" y2="100%"><stop offset="14.444444444444446%" stop-color="#6635ff" stop-opacity="1"></stop><stop offset="85.55555555555554%" stop-color="#9a6aff" stop-opacity="1"></stop></linearGradient></defs><defs><linearGradient id="grad1_2" x1="43.8%" y1="0%" x2="100%" y2="100%"><stop offset="14.444444444444446%" stop-color="#c19bff" stop-opacity="1"></stop><stop offset="85.55555555555554%" stop-color="#9a6aff" stop-opacity="1"></stop></linearGradient></defs><defs><linearGradient id="grad1_3" x1="43.8%" y1="0%" x2="100%" y2="100%"><stop offset="14.444444444444446%" stop-color="#c19bff" stop-opacity="1"></stop><stop offset="85.55555555555554%" stop-color="#e2cdff" stop-opacity="1"></stop></linearGradient></defs><defs><linearGradient id="grad1_4" x1="43.8%" y1="0%" x2="100%" y2="100%"><stop offset="14.444444444444446%" stop-color="#ffffff" stop-opacity="1"></stop><stop offset="85.55555555555554%" stop-color="#e2cdff" stop-opacity="1"></stop></linearGradient></defs><defs><linearGradient id="grad2_0" x1="0%" y1="0%" x2="56.3%" y2="100%"><stop offset="14.444444444444446%" stop-color="#6635ff" stop-opacity="1"></stop><stop offset="85.55555555555554%" stop-color="#6635ff" stop-opacity="1"></stop></linearGradient></defs><defs><linearGradient id="grad2_1" x1="0%" y1="0%" x2="56.3%" y2="100%"><stop offset="14.444444444444446%" stop-color="#9a6aff" stop-opacity="1"></stop><stop offset="85.55555555555554%" stop-color="#6635ff" stop-opacity="1"></stop></linearGradient></defs><defs><linearGradient id="grad2_2" x1="0%" y1="0%" x2="56.3%" y2="100%"><stop offset="14.444444444444446%" stop-color="#9a6aff" stop-opacity="1"></stop><stop offset="85.55555555555554%" stop-color="#c19bff" stop-opacity="1"></stop></linearGradient></defs><defs><linearGradient id="grad2_3" x1="0%" y1="0%" x2="56.3%" y2="100%"><stop offset="14.444444444444446%" stop-color="#e2cdff" stop-opacity="1"></stop><stop offset="85.55555555555554%" stop-color="#c19bff" stop-opacity="1"></stop></linearGradient></defs><defs><linearGradient id="grad2_4" x1="0%" y1="0%" x2="56.3%" y2="100%"><stop offset="14.444444444444446%" stop-color="#e2cdff" stop-opacity="1"></stop><stop offset="85.55555555555554%" stop-color="#ffffff" stop-opacity="1"></stop></linearGradient></defs><g transform="translate(960, 0)"><path d="M0 486C-52.4 450.4 -104.7 414.7 -161.9 390.8C-219 366.9 -281 354.7 -314.7 314.7C-348.3 274.6 -353.7 206.7 -361.2 149.6C-368.7 92.5 -378.4 46.3 -388 0L0 0Z" fill="#f1e6ff"></path><path d="M0 388.8C-41.9 360.3 -83.8 331.8 -129.5 312.6C-175.2 293.5 -224.8 283.8 -251.7 251.7C-278.7 219.7 -283 165.4 -289 119.7C-295 74 -302.7 37 -310.4 0L0 0Z" fill="#d2b4ff"></path><path d="M0 291.6C-31.4 270.2 -62.8 248.8 -97.1 234.5C-131.4 220.1 -168.6 212.8 -188.8 188.8C-209 164.8 -212.2 124 -216.7 89.8C-221.2 55.5 -227 27.8 -232.8 0L0 0Z" fill="#af83ff"></path><path d="M0 194.4C-20.9 180.1 -41.9 165.9 -64.8 156.3C-87.6 146.8 -112.4 141.9 -125.9 125.9C-139.3 109.8 -141.5 82.7 -144.5 59.9C-147.5 37 -151.3 18.5 -155.2 0L0 0Z" fill="#8350ff"></path><path d="M0 97.2C-10.5 90.1 -20.9 82.9 -32.4 78.2C-43.8 73.4 -56.2 70.9 -62.9 62.9C-69.7 54.9 -70.7 41.3 -72.2 29.9C-73.7 18.5 -75.7 9.3 -77.6 0L0 0Z" fill="#6635ff"></path></g><g transform="translate(0, 540)"><path d="M0 -486C49.7 -440.1 99.4 -394.1 153.5 -370.5C207.5 -346.8 265.9 -345.5 317.5 -317.5C369 -289.5 413.7 -234.9 428.7 -177.6C443.6 -120.2 428.8 -60.1 414 0L0 0Z" fill="#f1e6ff"></path><path d="M0 -388.8C39.8 -352 79.5 -315.3 122.8 -296.4C166 -277.5 212.7 -276.4 254 -254C295.2 -231.6 331 -187.9 342.9 -142.1C354.9 -96.2 343 -48.1 331.2 0L0 0Z" fill="#d2b4ff"></path><path d="M0 -291.6C29.8 -264 59.6 -236.5 92.1 -222.3C124.5 -208.1 159.6 -207.3 190.5 -190.5C221.4 -173.7 248.2 -141 257.2 -106.5C266.2 -72.1 257.3 -36.1 248.4 0L0 0Z" fill="#af83ff"></path><path d="M0 -194.4C19.9 -176 39.8 -157.6 61.4 -148.2C83 -138.7 106.4 -138.2 127 -127C147.6 -115.8 165.5 -94 171.5 -71C177.4 -48.1 171.5 -24 165.6 0L0 0Z" fill="#8350ff"></path><path d="M0 -97.2C9.9 -88 19.9 -78.8 30.7 -74.1C41.5 -69.4 53.2 -69.1 63.5 -63.5C73.8 -57.9 82.7 -47 85.7 -35.5C88.7 -24 85.8 -12 82.8 0L0 0Z" fill="#6635ff"></path></g></svg>