<svg id="visual" viewBox="0 0 960 340" width="960" height="340" xmlns="http://www.w3.org/2000/svg" xmlns:xlink="http://www.w3.org/1999/xlink" version="1.1"><path d="M0 18L137 28L274 25L411 25L549 25L686 18L823 28L960 21L960 0L823 0L686 0L549 0L411 0L274 0L137 0L0 0Z" fill="#ffffff"></path><path d="M0 79L137 76L274 120L411 110L549 93L686 89L823 106L960 113L960 19L823 26L686 16L549 23L411 23L274 23L137 26L0 16Z" fill="#ecfff5"></path><path d="M0 106L137 113L274 151L411 147L549 134L686 134L823 140L960 137L960 111L823 104L686 87L549 91L411 108L274 118L137 74L0 77Z" fill="#d8ffeb"></path><path d="M0 137L137 144L274 171L411 171L549 164L686 168L823 164L960 168L960 135L823 138L686 132L549 132L411 145L274 149L137 111L0 104Z" fill="#c2ffe1"></path><path d="M0 161L137 161L274 185L411 188L549 178L686 191L823 188L960 185L960 166L823 162L686 166L549 162L411 169L274 169L137 142L0 135Z" fill="#acffd7"></path><path d="M0 253L137 253L274 256L411 242L549 263L686 259L823 256L960 249L960 183L823 186L686 189L549 176L411 186L274 183L137 159L0 159Z" fill="#94fecd"></path><path d="M0 270L137 276L274 273L411 263L549 276L686 280L823 280L960 273L960 247L823 254L686 257L549 261L411 240L274 254L137 251L0 251Z" fill="#77fdc3"></path><path d="M0 317L137 317L274 324L411 317L549 307L686 324L823 324L960 310L960 271L823 278L686 278L549 274L411 261L274 271L137 274L0 268Z" fill="#54fcb9"></path><path d="M0 341L137 341L274 341L411 341L549 341L686 341L823 341L960 341L960 308L823 322L686 322L549 305L411 315L274 322L137 315L0 315Z" fill="#00faaf"></path></svg>